{"title":"Justice League Gods and Monsters (2015) 1080P WEB-DL","uid":12115387,"size":3375206665,"categoryP":"video","categoryS":"hd___movies","magnet":"?xt=urn:btih:3ea125071622be5ff4452d3957993cef83b67ec6&amp;dn=Justice+League+Gods+and+Monsters+%282015%29+1080P+WEB-DL&amp;tr=udp%3A%2F%2Ftracker.openbittorrent.com%3A80&amp;tr=udp%3A%2F%2Fopen.demonii.com%3A1337&amp;tr=udp%3A%2F%2Ftracker.coppersurfer.tk%3A6969&amp;tr=udp%3A%2F%2Fexodus.desync.com%3A6969","seeders":1,"leechers":1,"uploader":"jmanwf","files":2,"time":1436676095,"description":"From animation legend Bruce Timm, comes an all-new original movie. A seemingly familiar Metropolis skyline, though upon closer inspection this is not the same city. Journey to an alternate universe where the Justice League is now a trio of unchecked terror. Employing methods of intimidation and fear, Superman, Batman and Wonder Woman deal a brute force of justice. But, when a group of famed scientists experience untimely &quot;accidents&quot;, a government task force follows the trail of clues to the Justice League or is there a more powerful player operating from the shadows. It's a high stakes game of intrigue, mystery and action that asks the question, how do you serve justice to those above the law?\n\n\n\nVideo\nID : 2\nFormat : AVC\nFormat/Info : Advanced Video Codec\nFormat profile : High@L4\nFormat settings, CABAC : Yes\nFormat settings, ReFrames : 4 frames\nCodec ID : avc1\nCodec ID/Info : Advanced Video Coding\nDuration : 1h 15mn\nBit rate : 5 302 Kbps\nWidth : 1 912 pixels\nHeight : 1 072 pixels\nDisplay aspect ratio : 16:9\nFrame rate mode : Variable\nFrame rate : 23.976 fps\nMinimum frame rate : 23.976 fps\nMaximum frame rate : 24.769 fps\nColor space : YUV\nChroma subsampling : 4:2:0\nBit depth : 8 bits\nScan type : Progressive\nBits/(Pixel*Frame) : 0.108\nStream size : 2.80 GiB (89%)\nLanguage : English\nEncoded date : UTC 2015-07-11 06:02:56\nTagged date : UTC 2015-07-11 06:12:06\nColor range : Limited\nColor primaries : BT.709\nTransfer characteristics : BT.709\nMatrix coefficients : BT.709\n\nAudio #1\nID : 1\nFormat : AAC\nFormat/Info : Advanced Audio Codec\nFormat profile : LC\nCodec ID : 40\nDuration : 1h 15mn\nDuration_LastFrame : -4ms\nBit rate mode : Variable\nBit rate : 126 Kbps\nMaximum bit rate : 209 Kbps\nChannel(s) : 2 channels\nChannel positions : Front: L R\nSampling rate : 48.0 KHz\nCompression mode : Lossy\nStream size : 68.4 MiB (2%)\nLanguage : English\nEncoded date : UTC 2015-07-11 06:02:56\nTagged date : UTC 2015-07-11 06:12:06\n\nAudio #2\nID : 3\nFormat : AC-3\nFormat/Info : Audio Coding 3\nMode extension : CM (complete main)\nFormat settings, Endianness : Big\nCodec ID : ac-3\nDuration : 1h 15mn\nDuration_LastFrame : -1ms\nBit rate mode : Constant\nBit rate : 384 Kbps\nChannel(s) : 6 channels\nChannel positions : Front: L C R, Side: L R, LFE\nSampling rate : 48.0 KHz\nBit depth : 16 bits\nCompression mode : Lossy\nStream size : 208 MiB (6%)\nLanguage : English\nEncoded date : UTC 2015-07-11 06:02:57\nTagged date : UTC 2015-07-11 06:12:06 \n\n\n\n &lt;a href=&quot;\nhttps://itunes.apple.com/us/movie/justice-league-gods-monsters/id994657559&quot; rel=&quot;nofollow&quot; target=&quot;_NEW&quot;&gt;\nhttps://itunes.apple.com/us/movie/justice-league-gods-monsters/id994657559&lt;/a&gt;","torrent":{"xt":"urn:btih:3ea125071622be5ff4452d3957993cef83b67ec6","amp;dn":"Justice+League+Gods+and+Monsters+%282015%29+1080P+WEB-DL","amp;tr":["udp%3A%2F%2Ftracker.openbittorrent.com%3A80","udp%3A%2F%2Fopen.demonii.com%3A1337","udp%3A%2F%2Ftracker.coppersurfer.tk%3A6969","udp%3A%2F%2Fexodus.desync.com%3A6969"],"infoHash":"3ea125071622be5ff4452d3957993cef83b67ec6","infoHashBuffer":{"type":"Buffer","data":[62,161,37,7,22,34,190,95,244,69,45,57,87,153,60,239,131,182,126,198]},"announce":[],"urlList":[]}}